{
  "accessors": [
    {
      "bufferView": 2,
      "componentType": 5126,
      "count": 6681,
      "max": [
        1.7894999980926514,
        0.08878745138645172,
        1.184000015258789
      ],
      "min": [
        -1.7894999980926514,
        -0.0833110436797142,
        -1.184000015258789
      ],
      "type": "VEC3"
    },
    {
      "bufferView": 2,
      "byteOffset": 80172,
      "componentType": 5126,
      "count": 6681,
      "max": [
        1.0,
        0.9997772574424744,
        0.99144446849823
      ],
      "min": [
        -1.0,
        -0.9995490312576294,
        -1.0
      ],
      "type": "VEC3"
    },
    {
      "bufferView": 1,
      "componentType": 5126,
      "count": 6681,
      "max": [
        0.8819221258163452,
        0.8031483888626099
      ],
      "min": [
        0.0,
        0.0
      ],
      "type": "VEC2"
    },
    {
      "bufferView": 0,
      "componentType": 5125,
      "count": 16263,
      "type": "SCALAR"
    },
    {
      "bufferView": 2,
      "byteOffset": 160344,
      "componentType": 5126,
      "count": 80,
      "max": [
        0.8899331092834473,
        0.06765791773796082,
        1.0861049890518188
      ],
      "min": [
        -0.5827019810676575,
        0.03711274638772011,
        0.009906323626637459
      ],
      "type": "VEC3"
    },
    {
      "bufferView": 2,
      "byteOffset": 161304,
      "componentType": 5126,
      "count": 80,
      "max": [
        0.9720642566680908,
        0.5035474896430969,
        0.9858443737030029
      ],
      "min": [
        -0.9720346927642822,
        0.12168609350919724,
        -0.9796234369277954
      ],
      "type": "VEC3"
    },
    {
      "bufferView": 1,
      "byteOffset": 53448,
      "componentType": 5126,
      "count": 80,
      "max": [
        0.756508469581604,
        0.7380615472793579
      ],
      "min": [
        0.5219449996948242,
        0.3943706154823303
      ],
      "type": "VEC2"
    },
    {
      "bufferView": 0,
      "byteOffset": 65052,
      "componentType": 5125,
      "count": 192,
      "type": "SCALAR"
    },
    {
      "bufferView": 2,
      "byteOffset": 162264,
      "componentType": 5126,
      "count": 497,
      "max": [
        1.7894999980926514,
        0.07211828231811523,
        0.13663941621780396
      ],
      "min": [
        -1.7894999980926514,
        -0.003217756748199463,
        -1.145193099975586
      ],
      "type": "VEC3"
    },
    {
      "bufferView": 2,
      "byteOffset": 168228,
      "componentType": 5126,
      "count": 497,
      "max": [
        1.0,
        0.9999762773513794,
        0.9999383687973022
      ],
      "min": [
        -1.0,
        -0.9999843835830688,
        -1.0
      ],
      "type": "VEC3"
    },
    {
      "bufferView": 1,
      "byteOffset": 54088,
      "componentType": 5126,
      "count": 497,
      "max": [
        0.7818045020103455,
        0.7948024272918701
      ],
      "min": [
        0.37145790457725525,
        0.3943706154823303
      ],
      "type": "VEC2"
    },
    {
      "bufferView": 0,
      "byteOffset": 65820,
      "componentType": 5125,
      "count": 945,
      "type": "SCALAR"
    },
    {
      "bufferView": 2,
      "byteOffset": 174192,
      "componentType": 5126,
      "count": 200,
      "max": [
        1.7894999980926514,
        0.06256390362977982,
        -0.28951209783554077
      ],
      "min": [
        -1.7797520160675049,
        0.009392930194735527,
        -1.1261674165725708
      ],
      "type": "VEC3"
    },
    {
      "bufferView": 2,
      "byteOffset": 176592,
      "componentType": 5126,
      "count": 200,
      "max": [
        1.0,
        0.9999949336051941,
        0.9999949932098389
      ],
      "min": [
        -1.0,
        -0.9999949932098389,
        -0.9999949932098389
      ],
      "type": "VEC3"
    },
    {
      "bufferView": 1,
      "byteOffset": 58064,
      "componentType": 5126,
      "count": 200,
      "max": [
        0.7821179032325745,
        0.7937877178192139
      ],
      "min": [
        0.45468419790267944,
        0.5802207589149475
      ],
      "type": "VEC2"
    },
    {
      "bufferView": 0,
      "byteOffset": 69600,
      "componentType": 5125,
      "count": 372,
      "type": "SCALAR"
    },
    {
      "bufferView": 2,
      "byteOffset": 178992,
      "componentType": 5126,
      "count": 43,
      "max": [
        1.7894999980926514,
        0.08500000089406967,
        0.24496376514434814
      ],
      "min": [
        -1.7894999980926514,
        0.054827623069286346,
        -1.184000015258789
      ],
      "type": "VEC3"
    },
    {
      "bufferView": 2,
      "byteOffset": 179508,
      "componentType": 5126,
      "count": 43,
      "max": [
        1.1439239777644161e-08,
        0.9997772574424744,
        0.021445512771606445
      ],
      "min": [
        -6.577387239303789e-07,
        0.9997700452804565,
        0.021109607070684433
      ],
      "type": "VEC3"
    },
    {
      "bufferView": 1,
      "byteOffset": 59664,
      "componentType": 5126,
      "count": 43,
      "max": [
        0.9857264757156372,
        0.6945968866348267
      ],
      "min": [
        0.01116478443145752,
        0.3054032623767853
      ],
      "type": "VEC2"
    },
    {
      "bufferView": 0,
      "byteOffset": 71088,
      "componentType": 5125,
      "count": 144,
      "type": "SCALAR"
    },
    {
      "bufferView": 2,
      "byteOffset": 180024,
      "componentType": 5126,
      "count": 310,
      "max": [
        1.7894999980926514,
        0.10783836990594864,
        2.306051731109619
      ],
      "min": [
        -1.7894999980926514,
        -0.05297807976603508,
        -0.062149882316589355
      ],
      "type": "VEC3"
    },
    {
      "bufferView": 2,
      "byteOffset": 183744,
      "componentType": 5126,
      "count": 310,
      "max": [
        1.0,
        1.0,
        1.0
      ],
      "min": [
        -1.0,
        -1.0,
        -1.0
      ],
      "type": "VEC3"
    },
    {
      "bufferView": 1,
      "byteOffset": 60008,
      "componentType": 5126,
      "count": 310,
      "max": [
        0.766825258731842,
        0.7887411117553711
      ],
      "min": [
        0.0,
        0.0
      ],
      "type": "VEC2"
    },
    {
      "bufferView": 0,
      "byteOffset": 71664,
      "componentType": 5125,
      "count": 1014,
      "type": "SCALAR"
    },
    {
      "bufferView": 2,
      "byteOffset": 187464,
      "componentType": 5126,
      "count": 110,
      "max": [
        1.7795000076293945,
        0.06587530672550201,
        2.2958505153656006
      ],
      "min": [
        -1.7795000076293945,
        0.05583922564983368,
        -0.05214988440275192
      ],
      "type": "VEC3"
    },
    {
      "bufferView": 2,
      "byteOffset": 188784,
      "componentType": 5126,
      "count": 110,
      "max": [
        0.999993622303009,
        1.0,
        0.9999982714653015
      ],
      "min": [
        -0.9999995231628418,
        -1.0,
        -0.9999995827674866
      ],
      "type": "VEC3"
    },
    {
      "bufferView": 1,
      "byteOffset": 62488,
      "componentType": 5126,
      "count": 110,
      "max": [
        0.8819538950920105,
        0.7865374088287354
      ],
      "min": [
        0.2606074810028076,
        0.38631880283355713
      ],
      "type": "VEC2"
    },
    {
      "bufferView": 0,
      "byteOffset": 75720,
      "componentType": 5125,
      "count": 240,
      "type": "SCALAR"
    },
    {
      "bufferView": 2,
      "byteOffset": 190104,
      "componentType": 5126,
      "count": 4,
      "max": [
        1.7553671598434448,
        0.06587530672550201,
        2.222355604171753
      ],
      "min": [
        -1.7525749206542969,
        0.06586357206106186,
        0.24806706607341766
      ],
      "type": "VEC3"
    },
    {
      "bufferView": 2,
      "byteOffset": 190152,
      "componentType": 5126,
      "count": 4,
      "max": [
        1.0050412129203323e-06,
        -1.0,
        -4.178295057499781e-06
      ],
      "min": [
        1.0050412129203323e-06,
        -1.0,
        -4.178295057499781e-06
      ],
      "type": "VEC3"
    },
    {
      "bufferView": 1,
      "byteOffset": 63368,
      "componentType": 5126,
      "count": 4,
      "max": [
        1.0,
        0.38631880283355713
      ],
      "min": [
        0.7828357219696045,
        0.0
      ],
      "type": "VEC2"
    },
    {
      "bufferView": 0,
      "byteOffset": 76680,
      "componentType": 5125,
      "count": 6,
      "type": "SCALAR"
    }
  ],
  "asset": {
    "extras": {
      "author": "GeniusPilot2016 (https://sketchfab.com/GeniusPilot2016)",
      "license": "CC-BY-4.0 (http://creativecommons.org/licenses/by/4.0/)",
      "source": "https://sketchfab.com/3d-models/laptop-4dbce01df47449f98d65c3f4e3299bd9",
      "title": "Laptop"
    },
    "generator": "Sketchfab-15.9.0",
    "version": "2.0"
  },
  "bufferViews": [
    {
      "buffer": 0,
      "byteLength": 76704,
      "name": "floatBufferViews",
      "target": 34963
    },
    {
      "buffer": 0,
      "byteLength": 63400,
      "byteOffset": 76704,
      "byteStride": 8,
      "name": "floatBufferViews",
      "target": 34962
    },
    {
      "buffer": 0,
      "byteLength": 190200,
      "byteOffset": 140104,
      "byteStride": 12,
      "name": "floatBufferViews",
      "target": 34962
    }
  ],
  "buffers": [
    {
      "byteLength": 330304,
      "uri": "scene.bin"
    }
  ],
  "images": [
    {
      "uri": "textures/speaker_baseColor.png"
    }
  ],
  "materials": [
    {
      "doubleSided": true,
      "name": "case",
      "pbrMetallicRoughness": {
        "baseColorFactor": [
          0.686685,
          0.686685,
          0.686685,
          1.0
        ],
        "metallicFactor": 0.5,
        "roughnessFactor": 0.5
      }
    },
    {
      "doubleSided": true,
      "name": "shiny_parts",
      "pbrMetallicRoughness": {
        "baseColorFactor": [
          0.8,
          0.8,
          0.8,
          1.0
        ],
        "roughnessFactor": 0.0
      }
    },
    {
      "doubleSided": true,
      "name": "slots_1",
      "pbrMetallicRoughness": {
        "baseColorFactor": [
          0.0,
          0.0,
          0.0,
          1.0
        ],
        "metallicFactor": 0.0,
        "roughnessFactor": 0.5
      }
    },
    {
      "doubleSided": true,
      "name": "slots_2",
      "pbrMetallicRoughness": {
        "baseColorFactor": [
          0.28972,
          0.28972,
          0.28972,
          1.0
        ],
        "metallicFactor": 0.0,
        "roughnessFactor": 0.5
      }
    },
    {
      "doubleSided": true,
      "name": "speaker",
      "pbrMetallicRoughness": {
        "baseColorTexture": {
          "index": 0
        },
        "metallicFactor": 0.5,
        "roughnessFactor": 0.5
      }
    },
    {
      "doubleSided": true,
      "name": "bezel",
      "pbrMetallicRoughness": {
        "baseColorFactor": [
          0.0051815,
          0.00913405,
          0.0144438,
          1.0
        ],
        "metallicFactor": 0.0,
        "roughnessFactor": 0.5
      }
    },
    {
      "doubleSided": true,
      "name": "display",
      "pbrMetallicRoughness": {
        "baseColorFactor": [
          0.0,
          0.0,
          0.0,
          1.0
        ],
        "metallicFactor": 0.0,
        "roughnessFactor": 0.35
      }
    }
  ],
  "meshes": [
    {
      "name": "Object_0",
      "primitives": [
        {
          "attributes": {
            "NORMAL": 1,
            "POSITION": 0,
            "TEXCOORD_0": 2
          },
          "indices": 3,
          "material": 0,
          "mode": 4
        }
      ]
    },
    {
      "name": "Object_1",
      "primitives": [
        {
          "attributes": {
            "NORMAL": 5,
            "POSITION": 4,
            "TEXCOORD_0": 6
          },
          "indices": 7,
          "material": 1,
          "mode": 4
        }
      ]
    },
    {
      "name": "Object_2",
      "primitives": [
        {
          "attributes": {
            "NORMAL": 9,
            "POSITION": 8,
            "TEXCOORD_0": 10
          },
          "indices": 11,
          "material": 2,
          "mode": 4
        }
      ]
    },
    {
      "name": "Object_3",
      "primitives": [
        {
          "attributes": {
            "NORMAL": 13,
            "POSITION": 12,
            "TEXCOORD_0": 14
          },
          "indices": 15,
          "material": 3,
          "mode": 4
        }
      ]
    },
    {
      "name": "Object_4",
      "primitives": [
        {
          "attributes": {
            "NORMAL": 17,
            "POSITION": 16,
            "TEXCOORD_0": 18
          },
          "indices": 19,
          "material": 4,
          "mode": 4
        }
      ]
    },
    {
      "name": "Object_5",
      "primitives": [
        {
          "attributes": {
            "NORMAL": 21,
            "POSITION": 20,
            "TEXCOORD_0": 22
          },
          "indices": 23,
          "material": 0,
          "mode": 4
        }
      ]
    },
    {
      "name": "Object_6",
      "primitives": [
        {
          "attributes": {
            "NORMAL": 25,
            "POSITION": 24,
            "TEXCOORD_0": 26
          },
          "indices": 27,
          "material": 5,
          "mode": 4
        }
      ]
    },
    {
      "name": "Object_7",
      "primitives": [
        {
          "attributes": {
            "NORMAL": 29,
            "POSITION": 28,
            "TEXCOORD_0": 30
          },
          "indices": 31,
          "material": 6,
          "mode": 4
        }
      ]
    }
  ],
  "nodes": [
    {
      "children": [
        1
      ],
      "matrix": [
        1.0,
        0.0,
        0.0,
        0.0,
        0.0,
        2.220446049250313e-16,
        -1.0,
        0.0,
        0.0,
        1.0,
        2.220446049250313e-16,
        0.0,
        0.0,
        0.0,
        0.0,
        1.0
      ],
      "name": "Sketchfab_model"
    },
    {
      "children": [
        2
      ],
      "name": "root"
    },
    {
      "children": [
        3,
        9
      ],
      "matrix": [
        1.0,
        0.0,
        0.0,
        0.0,
        0.0,
        2.220446049250313e-16,
        1.0,
        0.0,
        0.0,
        -1.0,
        2.220446049250313e-16,
        0.0,
        0.0,
        0.0,
        0.0,
        1.0
      ],
      "name": "GLTF_SceneRootNode"
    },
    {
      "children": [
        4,
        5,
        6,
        7,
        8
      ],
      "matrix": [
        -0.23399998247623174,
        0.0,
        3.5333015145557025e-08,
        0.0,
        0.0,
        0.23399998247623444,
        0.0,
        0.0,
        -3.5333015145557025e-08,
        0.0,
        -0.23399998247623174,
        0.0,
        0.50174480676651,
        0.01793103851377964,
        0.5071476697921753,
        1.0
      ],
      "name": "Plane_2"
    },
    {
      "mesh": 0,
      "name": "Object_4"
    },
    {
      "mesh": 1,
      "name": "Object_5"
    },
    {
      "mesh": 2,
      "name": "Object_6"
    },
    {
      "mesh": 3,
      "name": "Object_7"
    },
    {
      "mesh": 4,
      "name": "Object_8"
    },
    {
      "children": [
        10,
        11,
        12
      ],
      "matrix": [
        -0.2339999824762333,
        -1.7398114495481387e-08,
        1.4598752356214984e-08,
        0.0,
        1.7398111171736155e-08,
        -0.04063364877943975,
        0.23044495538961163,
        0.0,
        -1.4598749567261414e-08,
        0.23044495538961163,
        0.04063364877944089,
        0.0,
        0.50174480676651,
        0.027727030217647552,
        0.769914984703064,
        1.0
      ],
      "name": "Plane.001_3"
    },
    {
      "mesh": 5,
      "name": "Object_10"
    },
    {
      "mesh": 6,
      "name": "Object_11"
    },
    {
      "mesh": 7,
      "name": "Object_12"
    }
  ],
  "samplers": [
    {
      "magFilter": 9729,
      "minFilter": 9987,
      "wrapS": 10497,
      "wrapT": 10497
    }
  ],
  "scene": 0,
  "scenes": [
    {
      "name": "Sketchfab_Scene",
      "nodes": [
        0
      ]
    }
  ],
  "textures": [
    {
      "sampler": 0,
      "source": 0
    }
  ]
}
