<svg width="1000" height="1125" viewBox="0 0 1000 1125" fill="none" xmlns="http://www.w3.org/2000/svg">
<g clip-path="url(#clip0_63_48)">
<g clip-path="url(#clip1_63_48)">
<g clip-path="url(#clip2_63_48)">
<g clip-path="url(#clip3_63_48)">
<path d="M65.5031 710.063L77.1469 724.619L71.325 705.694C69.8687 696.959 59.6813 707.15 65.5031 710.063ZM78.6031 701.328C82.9687 708.606 87.3375 715.884 87.3375 723.163C87.3375 733.353 96.0719 737.719 103.347 740.628C93.1562 728.984 87.3344 696.959 78.6031 701.328ZM637.553 84.1531C662.297 84.1531 685.587 81.2406 711.791 87.0625C775.837 103.075 829.694 135.097 866.084 180.222L967.978 343.25C972.344 384.006 981.078 429.131 979.622 478.622C989.813 478.622 988.356 464.066 1000 461.153C988.356 490.266 982.531 526.656 979.622 568.869C972.344 545.578 979.622 510.644 981.078 491.722C970.888 507.734 965.066 496.088 965.066 488.809C966.522 477.166 960.7 478.619 956.331 474.253C940.319 459.697 930.131 443.684 918.487 418.941C925.766 400.019 927.222 372.363 903.931 357.806C896.653 353.441 887.919 346.163 883.553 334.516C877.731 318.503 867.541 299.581 870.45 274.838C871.906 267.559 848.616 290.85 835.516 280.659C778.747 241.359 721.978 196.234 653.566 158.387C617.175 158.387 590.975 145.287 577.875 129.275C566.231 114.719 574.963 95.7969 592.431 94.3406C602.622 94.3406 614.266 91.4281 623 97.2531C624.456 91.4313 630.278 84.1531 637.553 84.1531ZM493.45 50.6719L496.362 52.1281C510.919 55.0406 518.197 75.4188 534.206 68.1406C534.206 78.3313 535.662 88.5188 532.75 95.7969C528.384 107.441 515.281 107.441 505.094 107.441C407.569 101.619 350.8 142.375 291.122 177.309C275.109 187.5 257.644 194.778 244.541 207.878C181.95 266.103 113.538 319.959 97.525 427.675L84.425 547.034C82.9688 560.134 68.4125 573.234 71.325 589.247L81.5125 660.572C71.3219 650.381 65.5 663.484 68.4125 669.306C69.8688 673.672 75.6906 688.228 84.425 675.128C96.0688 696.963 107.716 739.175 123.725 758.097C173.216 816.322 237.263 868.722 289.666 921.125C302.766 918.213 312.956 918.212 315.866 909.478C320.231 918.212 311.5 926.947 304.222 928.403C327.512 942.959 353.712 956.059 388.647 958.969C433.772 961.881 475.984 969.159 515.284 979.35C535.663 973.528 556.041 970.616 577.875 969.159C585.153 969.159 589.519 957.516 598.253 954.603L599.709 940.047C608.444 953.147 606.988 935.681 601.166 926.947C611.356 935.681 614.266 942.959 618.631 948.781C618.631 944.416 630.275 928.403 630.278 947.325L633.187 928.403C637.553 925.491 639.009 944.416 643.378 931.312C647.744 918.212 656.478 928.4 665.212 924.034C662.3 929.856 663.756 941.503 673.944 934.225L685.591 924.034C692.869 941.503 704.513 934.225 710.334 931.312C774.381 890.556 838.428 842.522 899.562 794.487L898.106 813.409L905.384 790.119C912.662 797.397 918.484 791.575 921.397 787.209C930.131 772.653 941.775 758.097 960.7 744.997C937.409 807.588 909.753 857.078 874.819 897.834L860.262 915.303C860.262 925.494 857.35 938.594 845.706 940.047C839.884 941.503 828.238 937.134 819.506 945.869C815.141 951.691 829.697 963.337 818.05 954.603C807.859 947.325 797.672 954.603 786.025 957.516C777.291 960.428 791.847 969.159 794.759 974.981C797.672 980.803 800.581 986.625 799.128 993.906L783.116 976.437C764.194 986.628 752.547 1005.55 736.534 1020.11C729.256 1025.93 732.169 1036.12 732.169 1044.85C721.978 1044.85 710.334 1041.94 704.513 1047.76C700.147 1053.58 701.6 1062.32 701.6 1071.05C687.044 1069.6 685.588 1047.76 672.491 1052.13C659.391 1055.04 644.834 1056.49 633.187 1063.77C641.922 1081.24 618.631 1071.05 621.544 1073.96C599.709 1060.86 580.788 1050.67 557.497 1059.41C508.006 1043.39 446.872 1050.67 401.747 1056.5C401.747 1049.22 403.203 1041.94 400.291 1040.48C397.378 1047.76 388.647 1044.85 390.103 1044.85C362.447 1025.93 334.791 1014.28 305.678 998.272C279.478 1001.18 254.731 988.081 247.453 980.803C227.075 961.881 203.784 972.069 184.862 967.703C144.106 957.513 129.55 915.3 125.181 886.191C122.269 871.634 110.625 865.812 106.259 867.266C87.3375 806.131 58.225 750.819 34.9344 694.05C29.1125 679.494 30.5687 664.938 30.5687 648.925C37.8469 651.838 45.125 650.381 43.6687 640.194C36.3906 592.159 18.925 555.769 0 520.834C10.1906 471.344 11.6437 413.119 34.9344 369.45C55.3125 330.15 93.1594 309.769 119.359 276.291C128.094 264.647 128.094 248.634 136.828 238.447C165.941 209.334 195.053 178.766 227.075 152.566C241.631 140.922 259.097 152.566 280.931 148.2C288.209 122 317.322 98.7094 344.978 105.988C356.622 108.9 379.913 78.3313 387.191 75.4188C398.834 71.0531 393.012 87.0625 393.012 97.2531C420.669 75.4188 458.516 63.775 493.45 50.6719Z" fill="#37B3ED"/>
<g clip-path="url(#clip4_63_48)">
<g clip-path="url(#clip5_63_48)">
<g clip-path="url(#clip6_63_48)">
<g clip-path="url(#clip7_63_48)">
<g clip-path="url(#clip8_63_48)">
<g clip-path="url(#clip9_63_48)">
<g clip-path="url(#clip10_63_48)">
<path d="M257.883 425.15V537.027C257.883 538.946 252.198 539.904 240.824 539.904C229.45 539.904 223.765 538.946 223.765 537.027V498.098H200.118V537.027C200.118 538.946 194.433 539.904 183.059 539.904C171.685 539.904 166 538.946 166 537.027V424.811C166 422.442 171.685 421.257 183.059 421.257C194.433 421.257 200.118 422.442 200.118 424.811V464.586H223.765V425.15C223.765 423.569 226.579 422.442 232.21 421.765C235.139 421.538 238.01 421.426 240.824 421.426L249.438 421.765C255.069 422.442 257.883 423.569 257.883 425.15ZM296.731 533.134L268.018 456.123C268.018 454.881 273.176 454.262 283.489 454.262C293.782 454.262 299.096 454.827 299.434 455.954L311.595 495.898L323.249 455.616C323.698 454.712 327.191 454.262 333.721 454.262C348.696 454.262 355.847 454.996 355.172 456.462L315.479 569.693C315.368 570.37 312.304 570.709 306.291 570.709C300.254 570.709 294.647 570.516 289.468 570.133C284.29 569.727 281.81 569.243 282.037 568.678L296.731 533.134ZM363.786 506.223V456.293C363.786 455.05 368.627 454.431 378.311 454.431C387.996 454.431 392.837 455.05 392.837 456.293V505.715C392.837 511.358 394.638 514.178 398.242 514.178C400.944 514.178 403.985 512.993 407.363 510.623V456.293C407.363 455.165 412.149 454.6 421.72 454.6C431.29 454.6 436.076 455.165 436.076 456.293V511.808H440.468C444.295 511.808 446.211 515.474 446.211 522.81C446.211 526.533 445.423 530.314 443.846 534.15C441.593 539.116 438.552 541.597 434.725 541.597C427.182 541.597 421.608 538.493 418.004 532.288L417.835 532.457C410.967 538.55 403.589 541.597 395.708 541.597C384.787 541.597 376.734 538.855 371.555 533.371C366.377 527.911 363.786 518.859 363.786 506.223ZM491.814 484.558V538.889C491.814 539.678 487.761 540.074 479.653 540.074C468.394 539.735 462.763 539.116 462.763 538.212V483.373H458.372C455.443 483.373 453.531 480.892 452.629 475.926C452.403 474.46 452.291 472.991 452.291 471.525C452.291 468.029 452.967 464.529 454.318 461.032C456.345 456.066 459.496 453.585 463.776 453.585C468.056 453.585 471.884 454.6 475.262 456.631C478.64 458.662 480.893 460.693 482.018 462.724C489.112 456.631 497.557 453.585 507.354 453.585C517.15 453.585 524.244 456.235 528.635 461.539C533.027 466.844 535.223 475.53 535.223 487.605V538.381C535.223 539.735 530.416 540.412 520.798 540.412C511.161 540.412 506.34 539.735 506.34 538.381V489.466C506.34 483.824 504.371 481.004 500.428 481.004C499.304 481.004 497.726 481.478 495.699 482.426C493.672 483.397 492.379 484.108 491.814 484.558ZM580.658 539.904C569.736 539.904 561.291 536.374 555.322 529.309C549.353 522.268 546.37 511.832 546.37 497.997C546.37 484.186 550.289 473.353 558.126 465.5C565.939 457.67 576.357 453.754 589.373 453.754C602.368 453.754 613.087 456.631 621.532 462.386V546.675C621.532 555.026 618.154 561.434 611.398 565.902C604.642 570.347 595.97 572.571 585.387 572.571C574.803 572.571 565.345 571.216 557.011 568.508C555.886 565.8 555.322 563.373 555.322 561.23C555.322 554.01 556.504 548.706 558.869 545.321C566.412 548.594 574.466 550.229 583.022 550.229C589.214 550.229 592.312 548.029 592.312 543.628V538.55C587.471 539.454 583.586 539.904 580.658 539.904ZM588.427 481.342C580.884 481.342 577.111 487.039 577.111 498.437C577.111 505.546 578.573 510.173 581.502 512.316C583.417 513.782 585.329 514.516 587.245 514.516C589.16 514.516 590.849 514.347 592.312 514.008V481.85C590.961 481.512 589.667 481.342 588.427 481.342ZM706.828 507.746H640.112C638.085 507.746 636.622 506.111 635.72 502.838C635.271 501.145 635.044 499.51 635.044 497.929C635.044 496.348 635.271 494.713 635.72 493.021C636.622 489.747 638.085 488.112 640.112 488.112H706.828C708.855 488.112 710.318 489.747 711.22 493.021C711.669 494.713 711.895 496.348 711.895 497.929C711.895 499.51 711.669 501.145 711.22 502.838C710.318 506.111 708.855 507.746 706.828 507.746ZM725.408 533.98V455.954C725.408 455.277 730.509 454.939 740.71 454.939C750.888 454.939 755.979 455.22 755.979 455.785V545.998C755.979 554.349 752.51 560.983 745.575 565.902C738.66 570.8 730.025 573.248 719.665 573.248C705.139 573.248 697.876 568.17 697.876 558.015C697.876 554.63 698.441 551.81 699.565 549.552C700.579 549.664 701.988 549.721 703.788 549.721C712.007 549.721 717.662 548.425 720.746 545.828C723.854 543.232 725.408 539.285 725.408 533.98ZM725.408 445.968V421.595C725.408 420.468 730.509 419.903 740.71 419.903C750.888 419.903 755.979 420.241 755.979 420.918V445.799C755.979 446.588 750.888 446.984 740.71 446.984C730.509 446.984 725.408 446.645 725.408 445.968ZM802.09 455.785V538.889C802.09 539.793 796.931 540.243 786.618 540.243C776.325 540.243 771.18 539.847 771.18 539.058V455.954C771.18 455.165 776.325 454.769 786.618 454.769C796.931 454.769 802.09 455.108 802.09 455.785ZM802.09 420.918V445.799C802.09 446.588 796.931 446.984 786.618 446.984C776.325 446.984 771.18 446.645 771.18 445.968V421.595C771.18 420.468 776.325 419.903 786.618 419.903C796.931 419.903 802.09 420.241 802.09 420.918ZM852.592 484.558V538.889C852.592 539.678 848.538 540.074 840.431 540.074C829.172 539.735 823.54 539.116 823.54 538.212V483.373H819.149C816.22 483.373 814.308 480.892 813.406 475.926C813.18 474.46 813.068 472.991 813.068 471.525C813.068 468.029 813.744 464.529 815.095 461.032C817.122 456.066 820.274 453.585 824.554 453.585C828.834 453.585 832.661 454.6 836.039 456.631C839.417 458.662 841.671 460.693 842.795 462.724C849.889 456.631 858.335 453.585 868.131 453.585C877.927 453.585 885.021 456.235 889.413 461.539C893.804 466.844 896 475.53 896 487.605V538.381C896 539.735 891.193 540.412 881.576 540.412C871.938 540.412 867.118 539.735 867.118 538.381V489.466C867.118 483.824 865.148 481.004 861.206 481.004C860.081 481.004 858.503 481.478 856.477 482.426C854.45 483.397 853.156 484.108 852.592 484.558Z" fill="#37B3ED"/>
<path d="M257.883 588.65V700.527C257.883 702.446 252.198 703.404 240.824 703.404C229.45 703.404 223.765 702.446 223.765 700.527V661.598H200.118V700.527C200.118 702.446 194.433 703.404 183.059 703.404C171.685 703.404 166 702.446 166 700.527V588.311C166 585.942 171.685 584.757 183.059 584.757C194.433 584.757 200.118 585.942 200.118 588.311V628.086H223.765V588.65C223.765 587.069 226.579 585.942 232.21 585.265C235.139 585.038 238.01 584.926 240.824 584.926L249.438 585.265C255.069 585.942 257.883 587.069 257.883 588.65ZM284.57 641.965C281.418 636.322 279.841 631.718 279.841 628.154C279.841 624.61 280.797 622.331 282.712 621.316C289.13 618.496 297.947 617.084 309.162 617.084C320.354 617.084 328.259 619.701 332.876 624.938C337.494 630.195 339.801 637.96 339.801 648.227V674.97H345.544C347.46 674.97 348.956 676.097 350.037 678.355C351.094 680.613 351.625 683.713 351.625 687.664C351.625 691.614 350.645 695.507 348.686 699.342C346.703 703.178 344.024 705.097 340.646 705.097C334.565 705.097 329.667 703.462 325.951 700.189C324.262 698.834 322.969 697.199 322.067 695.28C316.888 701.824 308.835 705.097 297.913 705.097C289.695 705.097 282.77 702.162 277.138 696.296C271.507 690.429 268.693 683.49 268.693 675.477C268.693 657.086 279.672 647.889 301.629 647.889H310.919V646.196C310.919 643.261 310.446 641.379 309.5 640.543C308.531 639.687 306.301 639.257 302.812 639.257C298.532 639.257 292.451 640.161 284.57 641.965ZM298.082 673.108C298.082 675.589 298.758 677.475 300.109 678.761C301.46 680.071 303.183 680.724 305.278 680.724C307.348 680.724 309.23 679.878 310.919 678.185V665.153H306.19C300.785 665.153 298.082 667.803 298.082 673.108ZM396.553 648.058V702.389C396.553 703.178 392.499 703.574 384.392 703.574C373.133 703.235 367.502 702.616 367.502 701.712V646.873H363.11C360.181 646.873 358.269 644.392 357.367 639.426C357.141 637.96 357.03 636.491 357.03 635.025C357.03 631.529 357.705 628.028 359.056 624.532C361.083 619.566 364.235 617.084 368.515 617.084C372.795 617.084 376.622 618.1 380 620.131C383.379 622.162 385.632 624.193 386.757 626.224C393.851 620.131 402.296 617.084 412.092 617.084C421.888 617.084 428.982 619.735 433.374 625.039C437.765 630.344 439.961 639.03 439.961 651.105V701.881C439.961 703.235 435.154 703.912 425.537 703.912C415.899 703.912 411.079 703.235 411.079 701.881V652.966C411.079 647.324 409.109 644.504 405.167 644.504C404.042 644.504 402.465 644.978 400.438 645.925C398.411 646.897 397.117 647.608 396.553 648.058Z" fill="#37B3ED"/>
</g>
</g>
</g>
</g>
</g>
</g>
</g>
</g>
</g>
</g>
</g>
<defs>
<clipPath id="clip0_63_48">
<rect width="1000" height="1125" fill="white"/>
</clipPath>
<clipPath id="clip1_63_48">
<rect width="1000" height="1125" fill="white"/>
</clipPath>
<clipPath id="clip2_63_48">
<rect width="1000" height="1125" fill="white"/>
</clipPath>
<clipPath id="clip3_63_48">
<rect width="1000" height="1125" fill="white"/>
</clipPath>
<clipPath id="clip4_63_48">
<rect width="730" height="327" fill="white" transform="translate(166 399)"/>
</clipPath>
<clipPath id="clip5_63_48">
<rect width="730" height="327" fill="white" transform="translate(166 399)"/>
</clipPath>
<clipPath id="clip6_63_48">
<rect width="730" height="327" fill="white" transform="translate(166 399)"/>
</clipPath>
<clipPath id="clip7_63_48">
<rect width="730" height="327" fill="white" transform="translate(166 399)"/>
</clipPath>
<clipPath id="clip8_63_48">
<rect width="730" height="327" fill="white" transform="translate(166 399)"/>
</clipPath>
<clipPath id="clip9_63_48">
<rect width="730" height="327" fill="white" transform="translate(166 399)"/>
</clipPath>
<clipPath id="clip10_63_48">
<rect width="730" height="327" fill="white" transform="translate(166 399)"/>
</clipPath>
</defs>
</svg>
