<svg width="257" height="257" viewBox="0 0 257 257" fill="none" xmlns="http://www.w3.org/2000/svg">
<g clip-path="url(#clip0_68_2)">
<path d="M32.125 0C14.3278 0 0 14.3278 0 32.125V224.875C0 242.672 14.3278 257 32.125 257H224.875C242.672 257 257 242.672 257 224.875V32.125C257 14.3278 242.672 0 224.875 0H32.125ZM105.83 66.9271C112.577 66.9271 116.592 70.1396 117.877 76.5646L133.544 165.476C138.523 158.89 142.603 153.343 145.815 148.846C150.795 141.778 155.378 133.661 159.554 124.506C163.891 115.35 166.065 107.158 166.065 99.9302C166.065 95.5933 164.855 92.1452 162.445 89.5752C160.197 86.8446 155.935 83.3965 149.67 79.2202C156.095 71.0284 164.127 66.9271 173.764 66.9271C178.904 66.9271 183.166 68.4584 186.539 71.5102C190.073 74.5621 191.829 79.0489 191.829 85.0027C191.829 94.9615 187.653 107.415 179.3 122.353C171.108 137.131 155.303 159.372 131.852 189.088L108.004 190.758L89.6823 87.6584H65.5885V77.5283C72.0135 75.4402 79.5629 73.1807 88.2367 70.7821C96.9104 68.2121 102.779 66.9271 105.83 66.9271Z" fill="white"/>
</g>
<defs>
<clipPath id="clip0_68_2">
<rect width="257" height="257" fill="white"/>
</clipPath>
</defs>
</svg>
